<svg width="206" height="51" viewBox="0 0 206 51" fill="none" xmlns="http://www.w3.org/2000/svg">
<g clip-path="url(#clip0_2192_33635)">
<path d="M109.046 40.9082C108.532 40.9082 108.134 40.7757 107.853 40.5106C107.588 40.2299 107.456 39.8323 107.456 39.3177V26.0082C107.456 25.4936 107.588 25.1037 107.853 24.8386C108.134 24.5579 108.532 24.4176 109.046 24.4176H117.397C117.787 24.4176 118.083 24.519 118.286 24.7217C118.504 24.9244 118.613 25.2129 118.613 25.5871C118.613 25.977 118.504 26.2811 118.286 26.4994C118.083 26.7021 117.787 26.8035 117.397 26.8035H110.333V31.3413H116.882C117.288 31.3413 117.592 31.4427 117.795 31.6454C117.997 31.8481 118.099 32.1444 118.099 32.5343C118.099 32.9241 117.997 33.2204 117.795 33.4231C117.592 33.6259 117.288 33.7272 116.882 33.7272H110.333V38.5224H117.397C117.787 38.5224 118.083 38.6237 118.286 38.8264C118.504 39.0292 118.613 39.3255 118.613 39.7153C118.613 40.1052 118.504 40.4014 118.286 40.6042C118.083 40.8069 117.787 40.9082 117.397 40.9082H109.046ZM125.603 41.1422C124.776 41.1422 124.035 40.9862 123.381 40.6743C122.741 40.3469 122.234 39.9102 121.86 39.3644C121.501 38.8187 121.322 38.2027 121.322 37.5166C121.322 36.6745 121.54 36.0117 121.977 35.5283C122.414 35.0293 123.123 34.6707 124.106 34.4523C125.088 34.234 126.406 34.1249 128.059 34.1249H129.228V35.809H128.082C127.115 35.809 126.343 35.8558 125.766 35.9494C125.189 36.0429 124.776 36.2067 124.527 36.4406C124.293 36.6589 124.176 36.9708 124.176 37.3762C124.176 37.8908 124.355 38.3118 124.714 38.6393C125.072 38.9668 125.571 39.1305 126.211 39.1305C126.725 39.1305 127.178 39.0136 127.568 38.7797C127.973 38.5302 128.293 38.1949 128.527 37.7739C128.76 37.3528 128.877 36.8694 128.877 36.3236V33.6336C128.877 32.8539 128.706 32.2926 128.363 31.9495C128.02 31.6064 127.443 31.4349 126.632 31.4349C126.18 31.4349 125.688 31.4895 125.158 31.5986C124.644 31.7078 124.098 31.8949 123.521 32.16C123.225 32.3004 122.959 32.3393 122.726 32.277C122.507 32.2146 122.336 32.0898 122.211 31.9027C122.086 31.7 122.024 31.4817 122.024 31.2478C122.024 31.0139 122.086 30.7877 122.211 30.5694C122.336 30.3355 122.546 30.164 122.843 30.0548C123.56 29.7585 124.246 29.548 124.901 29.4233C125.571 29.2985 126.18 29.2361 126.725 29.2361C127.848 29.2361 128.768 29.4077 129.486 29.7507C130.219 30.0938 130.764 30.6162 131.123 31.3179C131.482 32.0041 131.661 32.8929 131.661 33.9845V39.5984C131.661 40.0818 131.544 40.456 131.31 40.7211C131.076 40.9706 130.741 41.0954 130.304 41.0954C129.868 41.0954 129.525 40.9706 129.275 40.7211C129.041 40.456 128.924 40.0818 128.924 39.5984V38.4756H129.111C129.002 39.0214 128.784 39.497 128.456 39.9024C128.145 40.2923 127.747 40.5964 127.263 40.8147C126.78 41.033 126.226 41.1422 125.603 41.1422ZM139.634 41.1422C138.964 41.1422 138.254 41.072 137.506 40.9316C136.757 40.7913 136.087 40.5496 135.494 40.2065C135.245 40.0506 135.065 39.8712 134.956 39.6685C134.863 39.4502 134.824 39.2397 134.839 39.037C134.87 38.8187 134.948 38.6315 135.073 38.4756C135.213 38.3196 135.385 38.2183 135.588 38.1715C135.806 38.1247 136.04 38.1637 136.289 38.2885C136.913 38.5847 137.498 38.7953 138.044 38.92C138.59 39.0292 139.128 39.0837 139.658 39.0837C140.406 39.0837 140.96 38.959 141.319 38.7095C141.693 38.4444 141.88 38.1013 141.88 37.6803C141.88 37.3216 141.755 37.0487 141.506 36.8616C141.272 36.6589 140.913 36.5107 140.43 36.4172L138.091 35.9727C137.124 35.7856 136.383 35.4348 135.868 34.9202C135.369 34.39 135.12 33.7116 135.12 32.8851C135.12 32.1366 135.323 31.4895 135.728 30.9437C136.149 30.3979 136.726 29.9769 137.459 29.6806C138.192 29.3843 139.034 29.2361 139.985 29.2361C140.671 29.2361 141.311 29.3141 141.903 29.4701C142.511 29.6104 143.096 29.8365 143.658 30.1484C143.892 30.2731 144.047 30.4369 144.125 30.6396C144.219 30.8423 144.242 31.0528 144.196 31.2712C144.149 31.4739 144.055 31.661 143.915 31.8325C143.775 31.9885 143.595 32.0898 143.377 32.1366C143.174 32.1678 142.94 32.121 142.675 31.9963C142.192 31.7468 141.724 31.5674 141.272 31.4583C140.835 31.3491 140.414 31.2945 140.009 31.2945C139.245 31.2945 138.675 31.4271 138.301 31.6922C137.942 31.9573 137.763 32.3082 137.763 32.7448C137.763 33.0723 137.872 33.3452 138.091 33.5635C138.309 33.7818 138.644 33.9299 139.096 34.0079L141.435 34.4523C142.449 34.6395 143.213 34.9825 143.728 35.4815C144.258 35.9805 144.523 36.6511 144.523 37.4932C144.523 38.6315 144.079 39.5282 143.19 40.1831C142.301 40.8225 141.116 41.1422 139.634 41.1422ZM150.359 45.3058C150.016 45.3058 149.736 45.2122 149.517 45.0251C149.299 44.8535 149.167 44.6196 149.12 44.3233C149.089 44.027 149.143 43.7152 149.283 43.3877L150.874 39.8557V41.072L146.617 31.2244C146.477 30.8813 146.43 30.5616 146.477 30.2653C146.523 29.9691 146.664 29.7351 146.898 29.5636C147.147 29.3765 147.482 29.2829 147.903 29.2829C148.262 29.2829 148.551 29.3687 148.769 29.5402C148.987 29.6962 149.182 30.0002 149.354 30.4525L152.511 38.3352H151.81L155.038 30.4291C155.209 29.9925 155.412 29.6962 155.646 29.5402C155.88 29.3687 156.192 29.2829 156.581 29.2829C156.925 29.2829 157.197 29.3765 157.4 29.5636C157.603 29.7351 157.728 29.9691 157.774 30.2653C157.821 30.546 157.767 30.8579 157.611 31.201L151.927 44.183C151.724 44.6196 151.506 44.9159 151.272 45.0718C151.038 45.2278 150.734 45.3058 150.359 45.3058ZM169.536 41.0954C169.053 41.0954 168.679 40.9628 168.414 40.6977C168.164 40.417 168.039 40.035 168.039 39.5516V25.938C168.039 25.439 168.172 25.0647 168.437 24.8152C168.702 24.5501 169.076 24.4176 169.56 24.4176H175.197C177.006 24.4176 178.402 24.8698 179.384 25.7743C180.367 26.6787 180.858 27.9418 180.858 29.5636C180.858 31.1854 180.367 32.4563 179.384 33.3763C178.402 34.2808 177.006 34.733 175.197 34.733H171.034V39.5516C171.034 40.035 170.909 40.417 170.659 40.6977C170.41 40.9628 170.035 41.0954 169.536 41.0954ZM171.034 32.3705H174.729C175.79 32.3705 176.593 32.1366 177.139 31.6688C177.684 31.1854 177.957 30.4837 177.957 29.5636C177.957 28.6436 177.684 27.9496 177.139 27.4818C176.593 27.014 175.79 26.7801 174.729 26.7801H171.034V32.3705ZM190.667 41.0954C190.246 41.0954 189.895 41.0018 189.614 40.8147C189.349 40.612 189.131 40.3157 188.959 39.9258L182.854 26.2187C182.683 25.8289 182.636 25.4858 182.714 25.1895C182.792 24.8932 182.955 24.6593 183.205 24.4878C183.454 24.3162 183.751 24.2305 184.094 24.2305C184.546 24.2305 184.881 24.3318 185.1 24.5346C185.334 24.7217 185.528 25.0102 185.684 25.4L191.228 38.2417H190.222L195.743 25.3766C195.914 25.0024 196.117 24.7217 196.351 24.5346C196.585 24.3318 196.912 24.2305 197.333 24.2305C197.676 24.2305 197.957 24.3162 198.175 24.4878C198.409 24.6593 198.557 24.8932 198.62 25.1895C198.682 25.4858 198.627 25.8289 198.456 26.2187L192.351 39.9258C192.179 40.3157 191.961 40.612 191.696 40.8147C191.446 41.0018 191.103 41.0954 190.667 41.0954Z" fill="#1E1E1E"/>
<path fill-rule="evenodd" clip-rule="evenodd" d="M98.7191 12.3594H70.76L98.7191 50.512V12.3594Z" fill="#F89F44"/>
<path d="M70.76 50.512H98.7191L70.76 12.3594V50.512Z" fill="#F6912C"/>
<path fill-rule="evenodd" clip-rule="evenodd" d="M37.9363 50.512H65.8957L37.9363 12.3594V50.512Z" fill="#F6912C"/>
<path d="M65.8957 12.3594H37.9363L65.8957 50.512V12.3594Z" fill="#F89F44"/>
<path d="M33.0722 12.3594H5.11304V50.512H33.0722V12.3594Z" fill="#1E1E1E"/>
<path fill-rule="evenodd" clip-rule="evenodd" d="M0.199463 37.6329L27.7012 42.6698L7.07275 0.104492L0.199463 37.6329Z" fill="#F6912C"/>
<path d="M34.5744 5.14142L7.07275 0.104492L27.7012 42.6698L34.5744 5.14142Z" fill="#F89F44"/>
</g>
<defs>
<clipPath id="clip0_2192_33635">
<rect width="205.971" height="50.6805" fill="white"/>
</clipPath>
</defs>
</svg>
