<svg width="176" height="38" viewBox="0 0 176 38" fill="none" xmlns="http://www.w3.org/2000/svg">
<path d="M9.51715 28.6244C8.93041 28.6244 8.47619 28.4634 8.15442 28.1417C7.85161 27.801 7.7002 27.3374 7.7002 26.7506V10.029C7.7002 9.42336 7.85161 8.95965 8.15442 8.6379C8.47619 8.31616 8.93041 8.15527 9.51715 8.15527C10.1039 8.15527 10.5486 8.31616 10.8515 8.6379C11.1732 8.95965 11.3341 9.42336 11.3341 10.029V16.729H21.6396V10.029C21.6396 9.42336 21.791 8.95965 22.0938 8.6379C22.4156 8.31616 22.8698 8.15527 23.4565 8.15527C24.0433 8.15527 24.488 8.31616 24.7909 8.6379C25.1126 8.95965 25.2735 9.42336 25.2735 10.029V26.7506C25.2735 27.3374 25.1126 27.801 24.7909 28.1417C24.488 28.4634 24.0433 28.6244 23.4565 28.6244C22.8698 28.6244 22.4156 28.4634 22.0938 28.1417C21.791 27.801 21.6396 27.3374 21.6396 26.7506V19.7667H11.3341V26.7506C11.3341 27.3374 11.1827 27.801 10.8799 28.1417C10.577 28.4634 10.1228 28.6244 9.51715 28.6244ZM33.8597 28.3971C33.2351 28.3971 32.7523 28.2364 32.4118 27.9146C32.0901 27.5739 31.9291 27.0914 31.9291 26.4668V10.3129C31.9291 9.68833 32.0901 9.21517 32.4118 8.8934C32.7523 8.55274 33.2351 8.38241 33.8597 8.38241H43.9948C44.4679 8.38241 44.8276 8.50541 45.0736 8.75146C45.3385 8.99751 45.4711 9.34764 45.4711 9.80189C45.4711 10.275 45.3385 10.6441 45.0736 10.9091C44.8276 11.1551 44.4679 11.2781 43.9948 11.2781H35.4212V16.7858H43.3702C43.8622 16.7858 44.2314 16.9088 44.4774 17.1548C44.7234 17.4009 44.8465 17.7605 44.8465 18.2336C44.8465 18.7068 44.7234 19.0664 44.4774 19.3125C44.2314 19.5585 43.8622 19.6815 43.3702 19.6815H35.4212V25.5015H43.9948C44.4679 25.5015 44.8276 25.6246 45.0736 25.8706C45.3385 26.1166 45.4711 26.4762 45.4711 26.9493C45.4711 27.4226 45.3385 27.782 45.0736 28.028C44.8276 28.2743 44.4679 28.3971 43.9948 28.3971H33.8597ZM50.9783 28.6244C50.524 28.6244 50.1548 28.5203 49.8709 28.3121C49.606 28.1038 49.4452 27.8294 49.3884 27.4887C49.3316 27.1292 49.3979 26.7317 49.5871 26.2963L57.082 9.68833C57.328 9.13945 57.6214 8.75146 57.9621 8.52435C58.3217 8.2783 58.7287 8.15527 59.1829 8.15527C59.6183 8.15527 60.0061 8.2783 60.3468 8.52435C60.7065 8.75146 61.0093 9.13945 61.2553 9.68833L68.7787 26.2963C68.9868 26.7317 69.0625 27.1292 69.0057 27.4887C68.9489 27.8483 68.7881 28.1322 68.5232 28.3403C68.2582 28.5297 67.9081 28.6244 67.4726 28.6244C66.9427 28.6244 66.5263 28.5013 66.2234 28.2553C65.9395 27.9904 65.6841 27.5928 65.457 27.063L63.6116 22.776L65.1447 23.7697H53.1642L54.6973 22.776L52.8803 27.063C52.6343 27.6118 52.3788 28.0093 52.1139 28.2553C51.8489 28.5013 51.4703 28.6244 50.9783 28.6244ZM59.126 12.3286L55.1516 21.7824L54.4134 20.8739H63.8955L63.1859 21.7824L59.1829 12.3286H59.126ZM78.602 28.6244C78.0153 28.6244 77.5609 28.4634 77.2392 28.1417C76.9363 27.801 76.785 27.3374 76.785 26.7506V11.4201H71.2489C70.7569 11.4201 70.3688 11.2876 70.0849 11.0226C69.82 10.7388 69.6876 10.3602 69.6876 9.88705C69.6876 9.39497 69.82 9.0259 70.0849 8.77985C70.3688 8.51488 70.7569 8.38241 71.2489 8.38241H85.9549C86.4469 8.38241 86.8255 8.51488 87.0904 8.77985C87.3743 9.0259 87.5164 9.39497 87.5164 9.88705C87.5164 10.3602 87.3743 10.7388 87.0904 11.0226C86.8255 11.2876 86.4469 11.4201 85.9549 11.4201H80.419V26.7506C80.419 27.3374 80.2674 27.801 79.9646 28.1417C79.6618 28.4634 79.2077 28.6244 78.602 28.6244ZM93.6796 28.6244C93.0929 28.6244 92.6385 28.4634 92.3168 28.1417C92.0139 27.801 91.8626 27.3374 91.8626 26.7506V10.2277C91.8626 9.62208 92.0234 9.16784 92.3452 8.86501C92.6669 8.54327 93.1213 8.38241 93.708 8.38241H100.55C102.746 8.38241 104.439 8.93126 105.632 10.029C106.824 11.1268 107.42 12.6598 107.42 14.6281C107.42 16.5965 106.824 18.139 105.632 19.2557C104.439 20.3534 102.746 20.9023 100.55 20.9023H95.4966V26.7506C95.4966 27.3374 95.345 27.801 95.0422 28.1417C94.7394 28.4634 94.2853 28.6244 93.6796 28.6244ZM95.4966 18.0349H99.9822C101.269 18.0349 102.244 17.751 102.906 17.1832C103.569 16.5965 103.9 15.7448 103.9 14.6281C103.9 13.5115 103.569 12.6693 102.906 12.1015C102.244 11.5337 101.269 11.2498 99.9822 11.2498H95.4966V18.0349Z" fill="black"/>
<path d="M120.831 28.6804C119.449 28.6804 118.229 28.5007 117.169 28.1411C116.128 27.7814 115.248 27.2515 114.528 26.5511C113.809 25.8321 113.27 24.9425 112.91 23.8826C112.551 22.8227 112.371 21.5925 112.371 20.1919V14.9342C112.371 14.3096 112.522 13.8459 112.825 13.5431C113.147 13.2403 113.601 13.0889 114.188 13.0889C114.774 13.0889 115.219 13.2403 115.522 13.5431C115.844 13.8459 116.005 14.3096 116.005 14.9342V20.1636C116.005 21.9616 116.412 23.3148 117.225 24.2233C118.058 25.1128 119.26 25.5577 120.831 25.5577C122.402 25.5577 123.594 25.1128 124.408 24.2233C125.222 23.3148 125.629 21.9616 125.629 20.1636V14.9342C125.629 14.3096 125.78 13.8459 126.083 13.5431C126.405 13.2403 126.859 13.0889 127.446 13.0889C128.013 13.0889 128.449 13.2403 128.751 13.5431C129.073 13.8459 129.234 14.3096 129.234 14.9342V20.1919C129.234 22.0468 128.913 23.6082 128.269 24.8762C127.644 26.1444 126.707 27.1002 125.458 27.7435C124.209 28.3681 122.667 28.6804 120.831 28.6804Z" fill="black"/>
<path d="M137.477 28.6244C136.928 28.6244 136.502 28.4729 136.199 28.1701C135.916 27.8673 135.773 27.4318 135.773 26.8641V9.97222C135.773 9.3855 135.916 8.94073 136.199 8.6379C136.502 8.31616 136.89 8.15527 137.363 8.15527C137.799 8.15527 138.12 8.24044 138.329 8.4108C138.556 8.56218 138.821 8.82718 139.123 9.2057L149.997 23.3154H149.259V9.88705C149.259 9.33817 149.401 8.91234 149.685 8.60952C149.987 8.30669 150.413 8.15527 150.962 8.15527C151.511 8.15527 151.927 8.30669 152.211 8.60952C152.495 8.91234 152.637 9.33817 152.637 9.88705V26.9209C152.637 27.4508 152.505 27.8673 152.24 28.1701C151.975 28.4729 151.615 28.6244 151.161 28.6244C150.725 28.6244 150.375 28.5392 150.11 28.3687C149.864 28.1985 149.59 27.9241 149.287 27.5455L138.442 13.4358H139.152V26.8641C139.152 27.4318 139.01 27.8673 138.726 28.1701C138.442 28.4729 138.026 28.6244 137.477 28.6244ZM161.099 28.6244C160.512 28.6244 160.058 28.4634 159.736 28.1417C159.433 27.801 159.282 27.3374 159.282 26.7506V10.0006C159.282 9.39497 159.433 8.94073 159.736 8.6379C160.058 8.31616 160.512 8.15527 161.099 8.15527C161.685 8.15527 162.13 8.31616 162.433 8.6379C162.755 8.94073 162.916 9.39497 162.916 10.0006V17.24H162.972L171.12 9.06376C171.423 8.76093 171.726 8.5338 172.029 8.38241C172.331 8.23099 172.672 8.15527 173.051 8.15527C173.6 8.15527 173.988 8.29722 174.215 8.58113C174.461 8.86501 174.555 9.19623 174.499 9.57478C174.461 9.9533 174.281 10.3034 173.959 10.6252L165.669 18.8298L165.698 17.1832L174.357 25.984C174.754 26.3626 174.962 26.7601 174.981 27.1764C175 27.5928 174.868 27.943 174.584 28.2269C174.319 28.4918 173.921 28.6244 173.391 28.6244C172.937 28.6244 172.568 28.5297 172.284 28.3403C172.019 28.1511 171.707 27.8767 171.347 27.5171L162.972 19.1421H162.916V26.7506C162.916 27.3374 162.764 27.801 162.461 28.1417C162.158 28.4634 161.704 28.6244 161.099 28.6244Z" fill="black"/>
<path d="M116.791 12.3812C117.923 12.3812 118.841 11.4634 118.841 10.3312C118.841 9.19905 117.923 8.28125 116.791 8.28125C115.659 8.28125 114.741 9.19905 114.741 10.3312C114.741 11.4634 115.659 12.3812 116.791 12.3812Z" fill="#44F8F5"/>
<path d="M124.814 12.3812C125.946 12.3812 126.864 11.4634 126.864 10.3312C126.864 9.19905 125.946 8.28125 124.814 8.28125C123.682 8.28125 122.764 9.19905 122.764 10.3312C122.764 11.4634 123.682 12.3812 124.814 12.3812Z" fill="#FF2A6D"/>
</svg>
