<svg width="229" height="44" viewBox="0 0 229 44" fill="none" xmlns="http://www.w3.org/2000/svg">
<path d="M41.0781 0C39.9962 0 39.1201 0.876093 39.1201 1.95987C39.1201 3.04186 39.9962 3.91793 41.0781 3.91793C42.16 3.91793 43.0397 3.04186 43.0397 1.95987C43.0397 0.876093 42.162 0 41.0781 0Z" fill="#DCDC00"/>
<path d="M36.7176 0.313846C35.6916 0.424031 34.9455 1.34345 35.0539 2.37126C35.1623 3.39907 36.0835 4.1451 37.1113 4.03671C38.1372 3.93016 38.8851 3.00711 38.7768 1.98109C38.6666 0.953282 37.7472 0.207272 36.7176 0.313846Z" fill="#DCDC00"/>
<path d="M32.4073 0.996835C31.3975 1.21361 30.7509 2.20528 30.9676 3.21685C31.1808 4.22838 32.1743 4.87327 33.1858 4.65828C34.1956 4.44333 34.8404 3.44987 34.6273 2.4383C34.4123 1.42677 33.417 0.783718 32.4073 0.996835Z" fill="#DCDC00"/>
<path d="M28.2187 2.21301C27.283 2.51644 26.7718 3.5226 27.0753 4.46009C27.3805 5.39396 28.3849 5.90697 29.3224 5.60167C30.2581 5.29823 30.7692 4.29391 30.4658 3.3582C30.1605 2.42254 29.1562 1.9077 28.2187 2.21301Z" fill="#DCDC00"/>
<path d="M24.1525 3.77325C23.2548 4.17425 22.8483 5.22733 23.2493 6.1251C23.6504 7.02466 24.7034 7.42928 25.6012 7.02824C26.5007 6.62908 26.9053 5.57416 26.5044 4.67639C26.1051 3.77683 25.0521 3.37404 24.1525 3.77325Z" fill="#DCDC00"/>
<path d="M20.316 5.82963C19.5067 6.2975 19.2285 7.33251 19.6964 8.14355C20.166 8.95279 21.1993 9.22919 22.0103 8.76315C22.8177 8.29528 23.0959 7.26027 22.6281 6.45103C22.1602 5.64 21.1252 5.3618 20.316 5.82963Z" fill="#DCDC00"/>
<path d="M16.6687 8.19504C15.9118 8.74599 15.7457 9.8027 16.2948 10.5595C16.8439 11.3164 17.9042 11.4844 18.6611 10.9352C19.4161 10.3861 19.5841 9.32762 19.035 8.57077C18.4877 7.81391 17.4274 7.64589 16.6687 8.19504Z" fill="#DCDC00"/>
<path d="M13.3526 10.997C12.6951 11.5913 12.6428 12.6046 13.2334 13.2603C13.8277 13.9196 14.8411 13.9738 15.4986 13.3795C16.1561 12.7889 16.2103 11.7737 15.6178 11.1162C15.0253 10.4569 14.0101 10.4045 13.3526 10.997Z" fill="#DCDC00"/>
<path d="M10.2871 14.0641C9.6928 14.7216 9.74519 15.735 10.4045 16.3293C11.062 16.9236 12.0753 16.8694 12.6678 16.2119C13.2603 15.5544 13.2097 14.5411 12.5504 13.9468C11.8929 13.3525 10.8796 13.4049 10.2871 14.0641Z" fill="#DCDC00"/>
<path d="M9.74378 17.1528C9.06821 16.6597 8.11989 16.8096 7.62857 17.487C7.13722 18.1625 7.28716 19.1109 7.96274 19.6022C8.6419 20.0935 9.58663 19.9454 10.0779 19.268C10.5693 18.5907 10.4194 17.6441 9.74378 17.1528Z" fill="#DCDC00"/>
<path d="M7.34093 20.5631C6.6166 20.1423 5.68993 20.3915 5.27086 21.1159C4.8518 21.8402 5.10105 22.7669 5.82539 23.1859C6.54973 23.6032 7.47639 23.3557 7.89546 22.6314C8.31274 21.9052 8.06527 20.9804 7.34093 20.5631Z" fill="#DCDC00"/>
<path d="M5.27091 24.2864C4.55019 23.9667 3.70843 24.29 3.39051 25.009C3.069 25.7279 3.39234 26.5714 4.11126 26.8911C4.83197 27.2109 5.67194 26.8875 5.99345 26.1686C6.31137 25.4497 5.98983 24.608 5.27091 24.2864Z" fill="#DCDC00"/>
<path d="M3.63658 28.1272C2.88697 27.8834 2.08314 28.2916 1.84108 29.0412C1.59722 29.7908 2.00546 30.5947 2.7551 30.8385C3.50471 31.0824 4.30853 30.6724 4.55238 29.9245C4.79444 29.1749 4.38619 28.3711 3.63658 28.1272Z" fill="#DCDC00"/>
<path d="M2.39522 32.2014C1.67269 32.0479 0.964603 32.5085 0.809259 33.231C0.657525 33.9535 1.11634 34.6634 1.83887 34.817C2.56141 34.9705 3.27129 34.5099 3.42482 33.7873C3.57656 33.063 3.11776 32.3549 2.39522 32.2014Z" fill="#DCDC00"/>
<path d="M1.60398 36.2963C0.868799 36.2203 0.2131 36.7532 0.135428 37.4865C0.0577559 38.2217 0.592431 38.8772 1.3258 38.9569C2.06099 39.0329 2.71849 38.5019 2.79436 37.7667C2.87023 37.0315 2.33914 36.3755 1.60398 36.2963Z" fill="#DCDC00"/>
<path d="M1.24637 40.543C0.556354 40.543 0 41.1014 0 41.7897C0 42.4795 0.558161 43.036 1.24637 43.036C1.93459 43.036 2.49275 42.4775 2.49455 41.7913C2.49455 41.1014 1.93459 40.543 1.24637 40.543Z" fill="#DCDC00"/>
<path d="M75.1798 17.0181C74.6141 16.2413 73.6588 15.918 72.7791 16.1221C73.162 15.3056 73.0446 14.3031 72.3998 13.5896C71.7278 12.8382 70.6766 12.6413 69.7969 13.008C70.1273 12.168 69.9322 11.1745 69.2225 10.5351C68.4766 9.86315 67.4054 9.79994 66.5886 10.293C66.8995 9.3917 66.6141 8.35664 65.8012 7.76597C64.9502 7.1464 63.8106 7.2241 63.0447 7.8816C63.3086 6.96035 62.9309 5.94341 62.0639 5.44302C61.1409 4.91018 59.9885 5.1522 59.3381 5.95786C59.6091 4.95895 59.1267 3.88416 58.1515 3.45065C57.0855 2.97378 55.8412 3.44523 55.348 4.49832C55.6696 3.43436 55.0861 2.30724 54.0237 1.96042C52.9473 1.60997 51.7894 2.20064 51.4391 3.27542C51.092 4.35199 51.6792 5.50627 52.7575 5.85667C53.7908 6.19267 54.889 5.65617 55.2847 4.65726C54.8962 5.70677 55.3751 6.89173 56.412 7.35594C57.3168 7.75693 58.3445 7.47515 58.9388 6.73816C58.6932 7.65038 59.069 8.64929 59.9268 9.14602C60.7289 9.60843 61.6989 9.48564 62.3692 8.92203C62.1017 9.80352 62.3963 10.7934 63.1837 11.366C63.9224 11.9025 64.8802 11.9169 65.6225 11.4816C65.3495 12.2963 65.5628 13.2302 66.2419 13.8425C66.8923 14.4242 67.7863 14.5488 68.5486 14.2489C68.2182 15.0473 68.3444 15.9975 68.9606 16.6839C69.5493 17.3396 70.4274 17.569 71.2275 17.3739C70.8716 18.1163 70.913 19.0213 71.4317 19.7348C72.1828 20.7698 73.6317 20.9974 74.6667 20.2478C75.7 19.5017 75.9313 18.0513 75.1798 17.0181Z" fill="#DCDC00"/>
<path d="M49.7861 0.825422C48.6807 0.586988 47.5912 1.29688 47.3568 2.40239C47.1199 3.50965 47.8261 4.59709 48.9355 4.83552C50.0408 5.06854 51.1283 4.36224 51.3648 3.25497C51.5996 2.14767 50.8935 1.06027 49.7861 0.825422Z" fill="#DCDC00"/>
<path d="M45.4477 0.227818C44.371 0.114019 43.4065 0.894345 43.2926 1.97275C43.1824 3.04753 43.961 4.01392 45.0393 4.12768C46.114 4.2397 47.0785 3.45756 47.1923 2.38457C47.3046 1.30621 46.524 0.33981 45.4477 0.227818Z" fill="#DCDC00"/>
<path d="M40.9535 25.1894C40.5057 25.1678 40.1264 25.5146 40.1065 25.9626C40.0846 26.4123 40.4313 26.7917 40.8811 26.8115C41.3273 26.8314 41.7066 26.4864 41.7285 26.0384C41.7464 25.5905 41.4013 25.2111 40.9535 25.1894Z" fill="#0095DB"/>
<path d="M39.1453 25.2387C38.7174 25.264 38.3942 25.6325 38.4177 26.057C38.4428 26.4851 38.8094 26.8102 39.2357 26.7867C39.664 26.7614 39.9892 26.3947 39.9622 25.9666C39.9403 25.5385 39.5737 25.2134 39.1453 25.2387Z" fill="#0095DB"/>
<path d="M37.3495 25.4384C36.9268 25.507 36.6414 25.9063 36.7119 26.3289C36.7805 26.7516 37.1797 27.037 37.6006 26.9666C38.0251 26.898 38.3085 26.4969 38.2381 26.0761C38.1676 25.6534 37.7704 25.368 37.3495 25.4384Z" fill="#0095DB"/>
<path d="M35.5919 25.8598C35.1999 25.9664 34.9687 26.3746 35.0753 26.7666C35.1855 27.1604 35.5901 27.3916 35.9839 27.285C36.3758 27.1748 36.607 26.7684 36.4987 26.3764C36.3921 25.9862 35.9857 25.7533 35.5919 25.8598Z" fill="#0095DB"/>
<path d="M33.8798 26.4286C33.5023 26.5767 33.3126 27.0066 33.4625 27.3841C33.6107 27.7653 34.0388 27.9531 34.4181 27.8032C34.7992 27.6533 34.9853 27.2252 34.8353 26.8477C34.6891 26.4683 34.2609 26.2804 33.8798 26.4286Z" fill="#0095DB"/>
<path d="M32.2538 27.2051C31.9106 27.384 31.7751 27.8066 31.9539 28.1499C32.131 28.4912 32.5537 28.6267 32.8987 28.4497C33.2419 28.2709 33.3773 27.8482 33.1985 27.505C33.0215 27.1618 32.5988 27.0281 32.2538 27.2051Z" fill="#0095DB"/>
<path d="M30.7027 28.1155C30.3794 28.3287 30.2891 28.7622 30.5004 29.0873C30.7154 29.4107 31.1489 29.501 31.474 29.2878C31.7956 29.0747 31.8859 28.6412 31.6727 28.316C31.4596 27.9927 31.0242 27.9024 30.7027 28.1155Z" fill="#0095DB"/>
<path d="M29.2773 29.2105C28.9919 29.4417 28.9522 29.8626 29.1852 30.1462C29.4164 30.428 29.8354 30.4713 30.1191 30.2383C30.4026 30.0053 30.4442 29.5862 30.2112 29.3026C29.9781 29.019 29.5591 28.9774 29.2773 29.2105Z" fill="#0095DB"/>
<path d="M27.9495 30.421C27.6912 30.683 27.6948 31.102 27.9549 31.3622C28.2168 31.6187 28.6377 31.6168 28.8943 31.3549C29.1508 31.093 29.1489 30.6739 28.887 30.4156C28.6287 30.1591 28.2078 30.161 27.9495 30.421Z" fill="#0095DB"/>
<path d="M27.6672 31.6891C27.3963 31.4724 27.0007 31.5175 26.7839 31.7867C26.569 32.0576 26.6123 32.4532 26.8833 32.6699C27.156 32.8849 27.548 32.8398 27.7648 32.5724C27.9797 32.2978 27.9364 31.9059 27.6672 31.6891Z" fill="#0095DB"/>
<path d="M26.6074 33.0526C26.3147 32.8647 25.9282 32.9514 25.7421 33.2422C25.5561 33.5349 25.6392 33.9232 25.9318 34.1111C26.2244 34.2971 26.611 34.2122 26.7971 33.9214C26.9831 33.627 26.8982 33.2404 26.6074 33.0526Z" fill="#0095DB"/>
<path d="M25.6791 34.5531C25.3883 34.4069 25.0342 34.5242 24.8861 34.8169C24.7398 35.1077 24.8572 35.4635 25.1517 35.6098C25.4425 35.7562 25.7965 35.637 25.9428 35.3461C26.0892 35.0553 25.9699 34.6995 25.6791 34.5531Z" fill="#0095DB"/>
<path d="M24.9311 36.1086C24.6258 35.9948 24.2844 36.1501 24.1706 36.4554C24.055 36.7607 24.2103 37.1003 24.5156 37.2141C24.819 37.3295 25.1605 37.1779 25.276 36.869C25.3917 36.5657 25.2345 36.226 24.9311 36.1086Z" fill="#0095DB"/>
<path d="M24.3403 37.7723C24.0423 37.6947 23.7425 37.8698 23.6648 38.1679C23.5871 38.4621 23.7641 38.7658 24.0586 38.8434C24.3548 38.9211 24.6583 38.7423 24.7359 38.4478C24.8118 38.1516 24.6348 37.8483 24.3403 37.7723Z" fill="#0095DB"/>
<path d="M23.934 39.4519C23.6324 39.4049 23.3506 39.6147 23.3054 39.9144C23.2584 40.2177 23.468 40.498 23.7696 40.5449C24.0713 40.5899 24.3531 40.3821 24.4001 40.0788C24.4434 39.7807 24.2375 39.4973 23.934 39.4519Z" fill="#0095DB"/>
<path d="M23.7065 41.2007C23.4229 41.188 23.1791 41.4085 23.1664 41.6939C23.1556 41.9773 23.3741 42.2193 23.6595 42.2321C23.945 42.2464 24.187 42.0263 24.1996 41.7409C24.2105 41.4571 23.9919 41.2135 23.7065 41.2007Z" fill="#0095DB"/>
<path d="M54.4958 32.8775C54.3079 32.5921 53.9935 32.4421 53.6758 32.4476C53.8418 32.1188 53.8112 31.7106 53.562 31.4071C53.3215 31.1145 52.9458 31.0043 52.6011 31.0838C52.7364 30.7496 52.6676 30.3504 52.3933 30.0831C52.0967 29.7886 51.6545 29.7417 51.3074 29.9313C51.4539 29.5647 51.3564 29.1311 51.0312 28.8692C50.6932 28.5983 50.2183 28.6091 49.8895 28.8656C50.0161 28.4881 49.8788 28.0636 49.5285 27.8396C49.1543 27.5994 48.6739 27.6788 48.3905 28.0022C48.5222 27.5939 48.3451 27.1387 47.9478 26.9382C47.516 26.7215 46.9941 26.8931 46.7684 27.3194C46.9201 26.8858 46.6996 26.4072 46.2681 26.2446C45.829 26.0802 45.3414 26.3024 45.175 26.7414C45.0106 27.1785 45.2311 27.668 45.6698 27.8342C46.0889 27.9931 46.5535 27.7926 46.7374 27.3898C46.557 27.8179 46.7338 28.3129 47.1529 28.5242C47.5195 28.7084 47.9514 28.6109 48.2114 28.3147C48.0903 28.6886 48.2277 29.1094 48.5744 29.3334C48.896 29.5375 49.3008 29.5069 49.5878 29.2883C49.4616 29.6477 49.5643 30.0614 49.8788 30.3107C50.1749 30.5491 50.5706 30.5726 50.8851 30.4064C50.7565 30.7388 50.827 31.1289 51.096 31.3945C51.3257 31.6221 51.6454 31.7016 51.9399 31.6383C51.8042 31.9562 51.8404 32.3374 52.0752 32.6228C52.2703 32.8594 52.5557 32.975 52.8411 32.9678C52.6875 33.2658 52.693 33.6307 52.8901 33.9306C53.1826 34.3749 53.7769 34.496 54.2196 34.2051C54.6638 33.9179 54.7848 33.3218 54.4958 32.8775Z" fill="#0095DB"/>
<path d="M44.5405 25.6973C44.0871 25.5799 43.623 25.8509 43.5036 26.3042C43.3862 26.7576 43.6552 27.2219 44.1106 27.3393C44.564 27.4585 45.0265 27.1857 45.1455 26.7323C45.265 26.2808 44.9939 25.8165 44.5405 25.6973Z" fill="#0095DB"/>
<path d="M42.7556 25.3662C42.3129 25.3011 41.9013 25.6064 41.8325 26.049C41.7656 26.4933 42.0693 26.9051 42.5135 26.972C42.9562 27.0389 43.3697 26.7335 43.4366 26.291C43.5035 25.8484 43.2002 25.4348 42.7556 25.3662Z" fill="#0095DB"/>
<path d="M52.9691 20.4547C52.3728 20.1259 51.6252 20.3354 51.2873 20.9243C51.5293 20.321 51.2475 19.6364 50.6496 19.3817C50.0426 19.1234 49.342 19.4069 49.0837 20.0139C48.8269 20.6208 49.1088 21.3235 49.7158 21.5818C50.3009 21.8275 50.9693 21.5727 51.2475 21.011C50.9641 21.6017 51.1806 22.3152 51.7606 22.6385C52.3604 22.9727 53.1207 22.7541 53.4531 22.1526C53.7875 21.5475 53.5705 20.7888 52.9691 20.4547Z" fill="#36C3C8"/>
<path d="M48.2325 18.5561C47.631 18.3719 46.9934 18.7097 46.8075 19.313C46.6232 19.9163 46.9627 20.5558 47.5662 20.74C48.1692 20.9261 48.8089 20.5847 48.9928 19.9831C49.1755 19.378 48.8375 18.7404 48.2325 18.5561Z" fill="#36C3C8"/>
<path d="M45.7505 17.9882C45.1598 17.8726 44.587 18.2592 44.4716 18.8498C44.3561 19.4405 44.7426 20.0131 45.3333 20.1269C45.9256 20.2425 46.4965 19.8578 46.6123 19.2653C46.7277 18.6764 46.3412 18.1056 45.7505 17.9882Z" fill="#36C3C8"/>
<path d="M43.2275 17.6857C42.6567 17.6352 42.1528 18.0578 42.1022 18.6287C42.0517 19.2013 42.4744 19.7034 43.0468 19.7558C43.6176 19.8064 44.1216 19.3837 44.1705 18.8129C44.2227 18.2403 43.8003 17.7345 43.2275 17.6857Z" fill="#36C3C8"/>
<path d="M40.6949 17.6456C40.1495 17.6546 39.7141 18.1044 39.7248 18.6499C39.734 19.1954 40.1818 19.6271 40.7275 19.6199C41.2728 19.6091 41.7063 19.1611 41.6976 18.6156C41.6884 18.0719 41.2386 17.6384 40.6949 17.6456Z" fill="#36C3C8"/>
<path d="M38.1735 17.874C37.6604 17.9372 37.2955 18.4032 37.3605 18.9144C37.4238 19.4274 37.8881 19.7905 38.4008 19.7291C38.9123 19.6677 39.2754 19.2016 39.2137 18.6886C39.1508 18.1756 38.6846 17.8126 38.1735 17.874Z" fill="#36C3C8"/>
<path d="M35.695 18.3628C35.22 18.4711 34.9237 18.9462 35.0321 19.4195C35.1423 19.8963 35.6156 20.1908 36.0907 20.0806C36.5657 19.9722 36.8619 19.499 36.7536 19.0239C36.6452 18.5506 36.1701 18.2526 35.695 18.3628Z" fill="#36C3C8"/>
<path d="M33.2868 19.1055C32.8533 19.2554 32.6239 19.7287 32.772 20.1622C32.922 20.5975 33.3934 20.8269 33.827 20.677C34.2605 20.5271 34.4917 20.0556 34.3436 19.6221C34.1936 19.1868 33.7222 18.9574 33.2868 19.1055Z" fill="#36C3C8"/>
<path d="M30.9768 20.0938C30.5885 20.2762 30.4205 20.7404 30.5993 21.1306C30.78 21.5208 31.2442 21.6888 31.6343 21.5063C32.0227 21.3257 32.1925 20.8614 32.0119 20.4713C31.8294 20.0829 31.367 19.9131 30.9768 20.0938Z" fill="#36C3C8"/>
<path d="M28.7874 21.3171C28.4424 21.5248 28.3323 21.971 28.5382 22.3142C28.7441 22.6592 29.1921 22.7694 29.5371 22.5653C29.8785 22.3575 29.9923 21.9113 29.7846 21.5663C29.5768 21.2231 29.1307 21.1111 28.7874 21.3171Z" fill="#36C3C8"/>
<path d="M26.7409 22.7579C26.4429 22.9819 26.3833 23.4046 26.6073 23.7008C26.8313 23.9989 27.2557 24.0585 27.5538 23.8345C27.85 23.6105 27.9097 23.1878 27.6875 22.888C27.4599 22.5936 27.039 22.5339 26.7409 22.7579Z" fill="#36C3C8"/>
<path d="M24.8606 24.4017C24.6095 24.6383 24.595 25.0303 24.8298 25.2814C25.0647 25.5343 25.4584 25.5469 25.7113 25.3139C25.9606 25.0791 25.9769 24.6853 25.7421 24.4342C25.5072 24.1813 25.1116 24.1687 24.8606 24.4017Z" fill="#36C3C8"/>
<path d="M23.1646 26.2319C22.9587 26.4685 22.9839 26.8298 23.2224 27.0375C23.459 27.2435 23.8203 27.22 24.0262 26.9816C24.2322 26.7431 24.2087 26.3836 23.972 26.1741C23.7336 25.9664 23.3723 25.9935 23.1646 26.2319Z" fill="#36C3C8"/>
<path d="M21.6761 28.2218C21.5099 28.453 21.5677 28.78 21.8025 28.9426C22.0373 29.1069 22.3607 29.0509 22.5268 28.8161C22.6894 28.5813 22.6334 28.2562 22.3986 28.0918C22.1638 27.9292 21.8404 27.9852 21.6761 28.2218Z" fill="#36C3C8"/>
<path d="M21.0383 30.1697C20.8125 30.0451 20.5271 30.1264 20.4025 30.3522C20.276 30.578 20.3591 30.8633 20.5849 30.988C20.8107 31.1126 21.0943 31.0295 21.2189 30.8055C21.3454 30.5798 21.2641 30.2944 21.0383 30.1697Z" fill="#36C3C8"/>
<path d="M19.9079 32.3811C19.6965 32.289 19.4527 32.3883 19.3642 32.6014C19.2739 32.811 19.3714 33.053 19.5846 33.1451C19.7941 33.2337 20.0398 33.1361 20.1301 32.923C20.2186 32.7135 20.1211 32.4696 19.9079 32.3811Z" fill="#36C3C8"/>
<path d="M71.6956 37.9618C72.537 37.7938 73.0955 36.9881 72.9435 36.1392C72.7918 35.2812 71.9734 34.7086 71.1136 34.8603C70.2538 35.012 69.683 35.8321 69.8351 36.692C69.9831 37.5211 70.749 38.0736 71.5726 37.9781C70.7148 38.0919 70.0807 38.8486 70.142 39.7212C70.2068 40.6299 70.9946 41.3146 71.9033 41.2493C72.8117 41.1824 73.4964 40.3966 73.4315 39.4863C73.3646 38.5903 72.5912 37.9132 71.6956 37.9618Z" fill="#95C11F"/>
<path d="M71.0813 34.7378C71.8814 34.5065 72.3455 33.6684 72.1147 32.8682C71.885 32.0662 71.0487 31.6038 70.243 31.8332C69.4409 32.0644 68.9788 32.9007 69.2117 33.7028C69.4409 34.5047 70.2792 34.9672 71.0813 34.7378Z" fill="#95C11F"/>
<path d="M70.1527 31.5815C70.8915 31.2835 71.2473 30.4417 70.9476 29.7029C70.6494 28.9641 69.808 28.6083 69.0692 28.9081C68.3304 29.208 67.9745 30.0479 68.2743 30.7885C68.576 31.5273 69.4139 31.8832 70.1527 31.5815Z" fill="#95C11F"/>
<path d="M68.8955 28.5492C69.5654 28.1898 69.8202 27.3589 69.4607 26.6887C69.1049 26.0185 68.2741 25.7656 67.6038 26.1233C66.9355 26.4792 66.6807 27.3119 67.0386 27.982C67.3945 28.6522 68.2272 28.9051 68.8955 28.5492Z" fill="#95C11F"/>
<path d="M67.6721 23.8516C67.2693 23.2537 66.4585 23.0983 65.8606 23.5011C65.2643 23.904 65.1071 24.715 65.5099 25.3129C65.9127 25.909 66.7256 26.0661 67.3218 25.6633C67.9197 25.2587 68.0769 24.4477 67.6721 23.8516Z" fill="#95C11F"/>
<path d="M65.601 21.2209C65.1619 20.697 64.3814 20.6302 63.8595 21.0691C63.3357 21.5081 63.2688 22.2902 63.7079 22.8122C64.1465 23.3342 64.9271 23.4011 65.4509 22.9621C65.9728 22.5214 66.0397 21.7429 65.601 21.2209Z" fill="#95C11F"/>
<path d="M63.2705 18.8253C62.8063 18.3791 62.0656 18.3917 61.6193 18.856C61.1715 19.3202 61.1859 20.059 61.65 20.507C62.1145 20.9531 62.8549 20.9405 63.3011 20.4763C63.7473 20.012 63.7346 19.275 63.2705 18.8253Z" fill="#95C11F"/>
<path d="M60.7076 16.6944C60.2268 16.3205 59.5369 16.4072 59.1648 16.8859C58.7926 17.3645 58.8778 18.0545 59.3562 18.4303C59.8331 18.8042 60.5249 18.7157 60.8991 18.2388C61.2709 17.7583 61.1881 17.0683 60.7076 16.6944Z" fill="#95C11F"/>
<path d="M57.94 14.8469C57.456 14.5452 56.8203 14.6933 56.5222 15.1756C56.2205 15.6579 56.3685 16.2937 56.851 16.5935C57.3314 16.8952 57.9691 16.7471 58.2704 16.2648C58.5706 15.7825 58.4241 15.1467 57.94 14.8469Z" fill="#95C11F"/>
<path d="M55.0028 13.3007C54.5259 13.0677 53.95 13.2663 53.7167 13.745C53.4858 14.2219 53.6825 14.7963 54.1613 15.0293C54.6398 15.2624 55.2142 15.0637 55.4474 14.585C55.6787 14.1063 55.4817 13.5337 55.0028 13.3007Z" fill="#95C11F"/>
<path d="M51.9263 12.0722C51.4622 11.906 50.9491 12.1463 50.7811 12.6069C50.6132 13.0693 50.8532 13.5841 51.3177 13.7521C51.7798 13.9201 52.2929 13.6799 52.4609 13.2174C52.6289 12.7532 52.3905 12.2402 51.9263 12.0722Z" fill="#95C11F"/>
<path d="M48.7454 11.178C48.3048 11.0678 47.855 11.337 47.7467 11.7777C47.6381 12.2203 47.9075 12.6682 48.3482 12.7766C48.7888 12.8868 49.2386 12.6159 49.3469 12.1733C49.4572 11.7325 49.1861 11.2864 48.7454 11.178Z" fill="#95C11F"/>
<path d="M45.4962 10.6173C45.0807 10.5614 44.6997 10.8485 44.6436 11.2622C44.5859 11.6759 44.8729 12.057 45.2869 12.1166C45.702 12.1726 46.0834 11.8854 46.1395 11.4717C46.1972 11.0581 45.9082 10.6751 45.4962 10.6173Z" fill="#95C11F"/>
<path d="M42.2105 10.4028C41.8311 10.3884 41.5151 10.6882 41.5023 11.0658C41.4896 11.4451 41.7858 11.763 42.1651 11.7757C42.5464 11.7883 42.8625 11.4921 42.8752 11.1128C42.888 10.7334 42.5898 10.4173 42.2105 10.4028Z" fill="#95C11F"/>
<path d="M38.9322 10.5332C38.5907 10.5585 38.334 10.8547 38.3574 11.1943C38.3809 11.5357 38.6775 11.7922 39.0186 11.7669C39.3581 11.7435 39.6149 11.449 39.5914 11.1076C39.5659 10.7662 39.2698 10.5061 38.9322 10.5332Z" fill="#95C11F"/>
<path d="M35.6896 11.004C35.3897 11.0581 35.1911 11.3417 35.2452 11.6398C35.2976 11.9396 35.5812 12.1383 35.8811 12.0859C36.1791 12.0318 36.3796 11.7482 36.3254 11.4483C36.2712 11.1503 35.9876 10.9498 35.6896 11.004Z" fill="#95C11F"/>
<path d="M25.3285 13.9664C24.5644 14.3855 24.2863 15.3446 24.7053 16.1105C25.1244 16.8746 26.0854 17.1528 26.8494 16.7337C27.6135 16.3128 27.8917 15.3537 27.4726 14.5896C27.0536 13.8255 26.0926 13.5455 25.3285 13.9664Z" fill="#95C11F"/>
<path d="M22.4944 15.8059C21.8098 16.281 21.64 17.2221 22.1151 17.9103C22.5919 18.5949 23.5331 18.7629 24.2177 18.286C24.9041 17.811 25.0721 16.8699 24.597 16.1834C24.1219 15.4988 23.179 15.329 22.4944 15.8059Z" fill="#95C11F"/>
<path d="M19.8752 17.9229C19.2719 18.4432 19.2051 19.3536 19.7253 19.9569C20.2455 20.5602 21.1559 20.627 21.761 20.105C22.3644 19.5848 22.4312 18.6762 21.9091 18.0711C21.3889 17.4696 20.4785 17.4045 19.8752 17.9229Z" fill="#95C11F"/>
<path d="M17.4962 20.3015C16.976 20.8524 17.0031 21.7213 17.5559 22.2415C18.1068 22.76 18.9774 22.7329 19.4977 22.1801C20.0179 21.6274 19.9908 20.7567 19.4381 20.2383C18.8835 19.7199 18.0147 19.7452 17.4962 20.3015Z" fill="#95C11F"/>
<path d="M17.2123 22.6547C16.6361 22.2176 15.8178 22.3314 15.3825 22.9058C14.9472 23.4802 15.0591 24.2985 15.6336 24.7338C16.208 25.1692 17.0263 25.0572 17.4616 24.4845C17.8969 23.9102 17.7831 23.0901 17.2123 22.6547Z" fill="#95C11F"/>
<path d="M15.2563 25.2963C14.671 24.9441 13.9123 25.1301 13.5601 25.7136C13.2043 26.297 13.3921 27.0575 13.9756 27.4115C14.559 27.7656 15.3213 27.5795 15.6735 26.9961C16.0276 26.4108 15.8397 25.6504 15.2563 25.2963Z" fill="#95C11F"/>
<path d="M13.5943 28.1321C13.0108 27.8576 12.3154 28.1068 12.039 28.6903C11.7644 29.2737 12.0155 29.971 12.599 30.2437C13.1824 30.5183 13.8779 30.2672 14.1524 29.6838C14.427 29.1021 14.1777 28.4049 13.5943 28.1321Z" fill="#95C11F"/>
<path d="M12.2432 31.1248C11.6706 30.9261 11.0438 31.2259 10.8433 31.8021C10.6446 32.3766 10.9463 33.0033 11.5207 33.202C12.0933 33.4007 12.7201 33.0991 12.9206 32.5228C13.1211 31.952 12.8158 31.3234 12.2432 31.1248Z" fill="#95C11F"/>
<path d="M11.219 34.2467C10.6644 34.1184 10.1099 34.4598 9.98162 35.0144C9.85158 35.5689 10.1948 36.1235 10.7493 36.2518C11.302 36.3836 11.8584 36.0386 11.9867 35.4859C12.1167 34.9331 11.7735 34.3786 11.219 34.2467Z" fill="#95C11F"/>
<path d="M86.6659 36.663C86.3268 36.663 86.0665 36.5663 85.885 36.3725C85.7031 36.1787 85.6123 35.9123 85.6123 35.5732V24.6573C85.6123 24.3062 85.7094 24.0398 85.9029 23.8582C86.0967 23.6644 86.363 23.5676 86.7022 23.5676C87.0047 23.5676 87.2411 23.6281 87.4107 23.7492C87.5922 23.8582 87.7554 24.0519 87.9011 24.3304L92.3871 32.6309H91.806L96.292 24.3304C96.4373 24.0519 96.595 23.8582 96.7645 23.7492C96.9341 23.6281 97.1701 23.5676 97.4727 23.5676C97.8118 23.5676 98.0721 23.6644 98.2536 23.8582C98.4356 24.0398 98.5263 24.3062 98.5263 24.6573V35.5732C98.5263 35.9123 98.4356 36.1787 98.2536 36.3725C98.0841 36.5663 97.8237 36.663 97.4727 36.663C97.1335 36.663 96.8732 36.5663 96.6917 36.3725C96.5102 36.1787 96.4194 35.9123 96.4194 35.5732V27.1638H96.8191L93.0045 34.1202C92.8835 34.3261 92.7565 34.4775 92.6232 34.5743C92.4902 34.6712 92.3083 34.7196 92.0783 34.7196C91.8482 34.7196 91.6607 34.6712 91.5154 34.5743C91.3701 34.4653 91.2428 34.314 91.1341 34.1202L87.2833 27.1456H87.7192V35.5732C87.7192 35.9123 87.6284 36.1787 87.4469 36.3725C87.2774 36.5663 87.017 36.663 86.6659 36.663ZM106.412 36.663C106.036 36.663 105.746 36.5599 105.54 36.3541C105.347 36.1363 105.249 35.8397 105.249 35.4643V24.7663C105.249 24.3789 105.347 24.0822 105.54 23.8763C105.746 23.6705 106.036 23.5676 106.412 23.5676C106.787 23.5676 107.072 23.6705 107.266 23.8763C107.471 24.0822 107.574 24.3789 107.574 24.7663V35.4643C107.574 35.8397 107.477 36.1363 107.284 36.3541C107.09 36.5599 106.799 36.663 106.412 36.663ZM115.516 36.5177C115.116 36.5177 114.807 36.4147 114.589 36.209C114.384 35.991 114.28 35.6822 114.28 35.2827V24.948C114.28 24.5484 114.384 24.2456 114.589 24.0398C114.807 23.8219 115.116 23.7129 115.516 23.7129H119.039C121.183 23.7129 122.835 24.2638 123.998 25.3657C125.172 26.4676 125.759 28.0478 125.759 30.1062C125.759 31.1354 125.608 32.0497 125.305 32.8488C125.015 33.6359 124.579 34.3019 123.998 34.8468C123.428 35.3916 122.726 35.8094 121.891 36.1C121.068 36.3784 120.117 36.5177 119.039 36.5177H115.516ZM116.605 34.5924H118.894C119.645 34.5924 120.293 34.5017 120.838 34.32C121.394 34.1263 121.855 33.8478 122.218 33.4845C122.593 33.1091 122.872 32.643 123.053 32.086C123.235 31.5169 123.326 30.857 123.326 30.1062C123.326 28.6047 122.956 27.4847 122.218 26.7461C121.479 26.0075 120.371 25.6381 118.894 25.6381H116.605V34.5924ZM136.434 36.6993C135.901 36.6993 135.369 36.6571 134.836 36.5723C134.303 36.4994 133.801 36.3844 133.328 36.2271C132.856 36.0576 132.432 35.8518 132.057 35.6096C131.839 35.4643 131.688 35.2887 131.603 35.0828C131.518 34.877 131.488 34.6772 131.512 34.4835C131.548 34.2776 131.627 34.102 131.748 33.9568C131.882 33.7994 132.045 33.7025 132.239 33.6661C132.432 33.6298 132.644 33.6843 132.874 33.8296C133.407 34.1444 133.97 34.3745 134.564 34.5198C135.157 34.6651 135.78 34.7378 136.434 34.7378C137.391 34.7378 138.087 34.5803 138.523 34.2655C138.959 33.9386 139.177 33.5209 139.177 33.0123C139.177 32.5885 139.019 32.2555 138.705 32.0133C138.402 31.7712 137.875 31.5713 137.124 31.414L135.126 30.9962C133.976 30.754 133.117 30.3484 132.547 29.7793C131.991 29.1981 131.712 28.4352 131.712 27.4908C131.712 26.8974 131.833 26.3586 132.075 25.8743C132.317 25.3899 132.657 24.9722 133.092 24.621C133.54 24.2699 134.067 24.0035 134.672 23.8218C135.29 23.6281 135.968 23.5312 136.707 23.5312C137.433 23.5312 138.123 23.622 138.777 23.8037C139.431 23.9853 140.018 24.2517 140.539 24.6028C140.733 24.736 140.86 24.8995 140.92 25.0932C140.993 25.287 141.011 25.4807 140.975 25.6745C140.939 25.8561 140.854 26.0135 140.721 26.1467C140.587 26.2799 140.418 26.3586 140.212 26.3828C140.018 26.407 139.794 26.3465 139.54 26.2012C139.092 25.9469 138.638 25.7653 138.178 25.6563C137.718 25.5473 137.221 25.4929 136.688 25.4929C136.132 25.4929 135.653 25.5715 135.254 25.7289C134.854 25.8864 134.545 26.1104 134.327 26.401C134.121 26.6795 134.019 27.0125 134.019 27.4C134.019 27.8359 134.164 28.187 134.455 28.4534C134.745 28.7077 135.241 28.9075 135.944 29.0528L137.924 29.4705C139.122 29.7248 140.013 30.1244 140.594 30.6693C141.187 31.2142 141.484 31.9407 141.484 32.8488C141.484 33.4301 141.362 33.9568 141.12 34.429C140.89 34.9012 140.551 35.3069 140.103 35.6459C139.667 35.985 139.14 36.2453 138.523 36.427C137.906 36.6085 137.209 36.6993 136.434 36.6993ZM152.706 36.6993C151.822 36.6993 151.041 36.5842 150.363 36.3541C149.697 36.1242 149.133 35.7852 148.673 35.3372C148.213 34.877 147.868 34.3079 147.638 33.6298C147.408 32.9518 147.293 32.1647 147.293 31.2686V24.7482C147.293 24.3486 147.39 24.0519 147.584 23.8582C147.79 23.6644 148.08 23.5676 148.456 23.5676C148.831 23.5676 149.116 23.6644 149.309 23.8582C149.515 24.0519 149.618 24.3486 149.618 24.7482V31.2505C149.618 32.4008 149.878 33.2666 150.399 33.8478C150.932 34.4169 151.701 34.7014 152.706 34.7014C153.711 34.7014 154.473 34.4169 154.994 33.8478C155.515 33.2666 155.775 32.4008 155.775 31.2505V24.7482C155.775 24.3486 155.872 24.0519 156.066 23.8582C156.272 23.6644 156.562 23.5676 156.938 23.5676C157.301 23.5676 157.579 23.6644 157.773 23.8582C157.979 24.0519 158.082 24.3486 158.082 24.7482V31.2686C158.082 32.4553 157.876 33.4543 157.464 34.2655C157.065 35.0768 156.465 35.6883 155.666 36.1C154.867 36.4994 153.88 36.6993 152.706 36.6993ZM165.788 36.663C165.449 36.663 165.189 36.5663 165.007 36.3725C164.826 36.1787 164.735 35.9123 164.735 35.5732V24.6573C164.735 24.3062 164.831 24.0398 165.025 23.8582C165.219 23.6644 165.485 23.5676 165.824 23.5676C166.127 23.5676 166.363 23.6281 166.533 23.7492C166.714 23.8582 166.878 24.0519 167.023 24.3304L171.51 32.6309H170.928L175.414 24.3304C175.56 24.0519 175.717 23.8582 175.887 23.7492C176.056 23.6281 176.292 23.5676 176.595 23.5676C176.934 23.5676 177.195 23.6644 177.376 23.8582C177.558 24.0398 177.648 24.3062 177.648 24.6573V35.5732C177.648 35.9123 177.558 36.1787 177.376 36.3725C177.207 36.5663 176.946 36.663 176.595 36.663C176.256 36.663 175.996 36.5663 175.814 36.3725C175.632 36.1787 175.541 35.9123 175.541 35.5732V27.1638H175.941L172.127 34.1202C172.006 34.3261 171.879 34.4775 171.746 34.5743C171.612 34.6712 171.431 34.7196 171.201 34.7196C170.971 34.7196 170.783 34.6712 170.637 34.5743C170.492 34.4653 170.365 34.314 170.256 34.1202L166.406 27.1456H166.842V35.5732C166.842 35.9123 166.751 36.1787 166.569 36.3725C166.399 36.5663 166.139 36.663 165.788 36.663ZM185.461 36.663C185.123 36.663 184.862 36.5663 184.68 36.3725C184.499 36.1787 184.408 35.9123 184.408 35.5732V24.6573C184.408 24.3062 184.505 24.0398 184.699 23.8582C184.893 23.6644 185.159 23.5676 185.498 23.5676C185.8 23.5676 186.037 23.6281 186.206 23.7492C186.388 23.8582 186.551 24.0519 186.696 24.3304L191.183 32.6309H190.602L195.088 24.3304C195.233 24.0519 195.391 23.8582 195.56 23.7492C195.729 23.6281 195.966 23.5676 196.268 23.5676C196.608 23.5676 196.868 23.6644 197.049 23.8582C197.231 24.0398 197.322 24.3062 197.322 24.6573V35.5732C197.322 35.9123 197.231 36.1787 197.049 36.3725C196.88 36.5663 196.62 36.663 196.268 36.663C195.929 36.663 195.669 36.5663 195.487 36.3725C195.306 36.1787 195.215 35.9123 195.215 35.5732V27.1638H195.614L191.8 34.1202C191.679 34.3261 191.552 34.4775 191.419 34.5743C191.286 34.6712 191.104 34.7196 190.874 34.7196C190.644 34.7196 190.456 34.6712 190.311 34.5743C190.166 34.4653 190.039 34.314 189.929 34.1202L186.079 27.1456H186.515V35.5732C186.515 35.9123 186.424 36.1787 186.243 36.3725C186.073 36.5663 185.813 36.663 185.461 36.663ZM205.28 36.5177C204.881 36.5177 204.572 36.4147 204.354 36.209C204.148 35.991 204.045 35.6822 204.045 35.2827V24.948C204.045 24.5484 204.148 24.2456 204.354 24.0398C204.572 23.8219 204.881 23.7129 205.28 23.7129H211.764C212.067 23.7129 212.297 23.7916 212.454 23.949C212.624 24.1064 212.709 24.3304 212.709 24.621C212.709 24.9237 212.624 25.1598 212.454 25.3294C212.297 25.4868 212.067 25.5655 211.764 25.5655H206.279V29.0891H211.365C211.68 29.0891 211.916 29.1678 212.073 29.3252C212.231 29.4826 212.309 29.7127 212.309 30.0154C212.309 30.3181 212.231 30.5482 212.073 30.7056C211.916 30.863 211.68 30.9417 211.365 30.9417H206.279V34.6651H211.764C212.067 34.6651 212.297 34.7438 212.454 34.9012C212.624 35.0586 212.709 35.2887 212.709 35.5914C212.709 35.8942 212.624 36.1242 212.454 36.2817C212.297 36.4389 212.067 36.5177 211.764 36.5177H205.28ZM219.95 36.663C219.575 36.663 219.284 36.5599 219.078 36.3541C218.885 36.1363 218.787 35.8397 218.787 35.4643V24.8935C218.787 24.506 218.891 24.2154 219.096 24.0217C219.302 23.8158 219.593 23.7129 219.968 23.7129H224.345C225.75 23.7129 226.834 24.0519 227.597 24.73C228.359 25.396 228.741 26.3344 228.741 27.5453C228.741 28.3323 228.565 29.0104 228.214 29.5795C227.875 30.1486 227.379 30.5845 226.725 30.8872C226.071 31.1899 225.278 31.3413 224.345 31.3413L224.509 31.0688H225.109C225.605 31.0688 226.035 31.1899 226.398 31.4321C226.773 31.6743 227.1 32.0557 227.379 32.5764L228.741 35.101C228.886 35.3553 228.953 35.6035 228.941 35.8457C228.929 36.0879 228.838 36.2877 228.668 36.4449C228.499 36.5902 228.25 36.663 227.924 36.663C227.597 36.663 227.33 36.5966 227.124 36.4632C226.918 36.3179 226.737 36.1 226.579 35.8094L224.745 32.4311C224.527 32.0194 224.267 31.7469 223.964 31.6137C223.674 31.4685 223.298 31.3958 222.838 31.3958H221.112V35.4643C221.112 35.8397 221.016 36.1363 220.822 36.3541C220.628 36.5599 220.337 36.663 219.95 36.663ZM221.112 29.6703H223.946C224.781 29.6703 225.411 29.5008 225.835 29.1617C226.271 28.8106 226.489 28.2899 226.489 27.5997C226.489 26.9217 226.271 26.4131 225.835 26.074C225.411 25.7229 224.781 25.5473 223.946 25.5473H221.112V29.6703Z" fill="#003C56"/>
</svg>
