<svg width="49" height="49" viewBox="0 0 49 49" fill="none" xmlns="http://www.w3.org/2000/svg">
<mask id="mask0_1_404" style="mask-type:alpha" maskUnits="userSpaceOnUse" x="0" y="0" width="49" height="49">
<rect width="48" height="48" transform="matrix(0 1 1 0 0.125 0.5)" fill="#D9D9D9"/>
</mask>
<g mask="url(#mask0_1_404)">
<path d="M33.225 24.8L29.875 28.1L26.475 24.7L26.475 33.15H21.775L21.775 24.7L18.375 28.1L15.025 24.8L24.125 15.7L33.225 24.8ZM45.375 24.5069C45.375 21.569 44.8236 18.8085 43.7208 16.2256C42.618 13.6427 41.1012 11.3858 39.1702 9.4548C37.2392 7.52383 34.9846 6.00697 32.4063 4.9042C29.828 3.8014 27.0698 3.25 24.1319 3.25C21.1606 3.25 18.3836 3.8014 15.8007 4.9042C13.2177 6.00697 10.9682 7.52122 9.05221 9.44695C7.13615 11.3727 5.61926 13.6259 4.50156 16.2067C3.38386 18.7875 2.82501 21.5482 2.82501 24.489C2.82501 27.463 3.38258 30.2434 4.49771 32.8303C5.61281 35.4171 7.12618 37.6673 9.03781 39.5809C10.9494 41.4945 13.1974 43.0094 15.7817 44.1257C18.3659 45.2419 21.147 45.8 24.125 45.8C27.0675 45.8 29.83 45.2411 32.4124 44.1235C34.9947 43.0058 37.2494 41.4889 39.1763 39.5728C41.1032 37.6568 42.618 35.4096 43.7208 32.8313C44.8236 30.253 45.375 27.4782 45.375 24.5069ZM40.675 24.5C40.675 29.1 39.0688 33.0083 35.8564 36.225C32.644 39.4417 28.7335 41.05 24.125 41.05C19.525 41.05 15.6167 39.4417 12.4 36.225C9.18334 33.0083 7.57501 29.0917 7.57501 24.475C7.57501 19.8917 9.18334 15.9917 12.4 12.775C15.6167 9.55833 19.5333 7.95 24.15 7.95C28.7333 7.95 32.6333 9.5562 35.85 12.7686C39.0667 15.981 40.675 19.8915 40.675 24.5Z" fill="#181818"/>
</g>
</svg>
