<svg width="49" height="49" viewBox="0 0 49 49" fill="none" xmlns="http://www.w3.org/2000/svg">
<mask id="mask0_1_366" style="mask-type:alpha" maskUnits="userSpaceOnUse" x="0" y="0" width="49" height="49">
<rect x="0.5" y="48.25" width="48" height="48" transform="rotate(-90 0.5 48.25)" fill="#D9D9D9"/>
</mask>
<g mask="url(#mask0_1_366)">
<path d="M33.6 23.95L30.25 20.65L26.85 24.05L26.85 15.6H22.15L22.15 24.05L18.75 20.65L15.4 23.95L24.5 33.05L33.6 23.95ZM45.75 24.2431C45.75 27.181 45.1986 29.9415 44.0958 32.5244C42.993 35.1073 41.4761 37.3642 39.5452 39.2952C37.6142 41.2262 35.3595 42.743 32.7812 43.8458C30.2029 44.9486 27.4448 45.5 24.5069 45.5C21.5356 45.5 18.7585 44.9486 16.1756 43.8458C13.5927 42.743 11.3432 41.2288 9.42715 39.3031C7.51109 37.3773 5.9942 35.1241 4.8765 32.5433C3.7588 29.9625 3.19995 27.2018 3.19995 24.261C3.19995 21.287 3.75752 18.5066 4.87265 15.9197C5.98775 13.3329 7.50112 11.0827 9.41275 9.1691C11.3244 7.25554 13.5723 5.74062 16.1566 4.62435C18.7408 3.50811 21.522 2.95 24.5 2.95C27.4425 2.95 30.2049 3.50885 32.7873 4.62655C35.3697 5.74425 37.6243 7.26114 39.5512 9.1772C41.4781 11.0932 42.993 13.3404 44.0958 15.9187C45.1986 18.497 45.75 21.2718 45.75 24.2431ZM41.05 24.25C41.05 19.65 39.4437 15.7417 36.2313 12.525C33.0189 9.30833 29.1085 7.7 24.5 7.7C19.9 7.7 15.9916 9.30833 12.775 12.525C9.55828 15.7417 7.94995 19.6583 7.94995 24.275C7.94995 28.8583 9.55828 32.7583 12.775 35.975C15.9916 39.1917 19.9083 40.8 24.525 40.8C29.1083 40.8 33.0083 39.1938 36.225 35.9814C39.4416 32.769 41.05 28.8585 41.05 24.25Z" fill="#181818"/>
</g>
</svg>
