<svg width="21" height="20" viewBox="0 0 21 20" fill="none" xmlns="http://www.w3.org/2000/svg">
<mask id="mask0_2027_3167" style="mask-type:alpha" maskUnits="userSpaceOnUse" x="0" y="0" width="21" height="20">
<rect x="0.625" width="20" height="20" fill="#D9D9D9"/>
</mask>
<g mask="url(#mask0_2027_3167)">
<path d="M8.125 15C7.7125 15 7.35938 14.8531 7.06562 14.5594C6.77187 14.2656 6.625 13.9125 6.625 13.5V3.5C6.625 3.0875 6.77187 2.73438 7.06562 2.44063C7.35938 2.14688 7.7125 2 8.125 2H16.125C16.5375 2 16.8906 2.14688 17.1844 2.44063C17.4781 2.73438 17.625 3.0875 17.625 3.5V13.5C17.625 13.9125 17.4781 14.2656 17.1844 14.5594C16.8906 14.8531 16.5375 15 16.125 15H8.125ZM8.125 13.5H16.125V3.5H8.125V13.5ZM5.125 18C4.7125 18 4.35937 17.8531 4.06562 17.5594C3.77187 17.2656 3.625 16.9125 3.625 16.5V5H5.125V16.5H14.625V18H5.125Z" fill="#F4F3F1"/>
</g>
</svg>
