<svg width="36" height="37" viewBox="0 0 36 37" fill="none" xmlns="http://www.w3.org/2000/svg">
<path d="M20.25 20.4238V21.47C20.25 21.785 20.43 22.0663 20.7225 22.19L22.3538 22.9213C22.455 22.9663 22.5675 22.9888 22.68 22.9888H22.8375C23.2762 22.9888 23.6363 22.6288 23.6363 22.19C23.6363 21.9763 23.5575 21.7738 23.4 21.6275L21.6112 19.8388C21.465 19.6925 21.2625 19.6025 21.0487 19.6025C20.5987 19.625 20.25 19.985 20.25 20.4238Z" fill="#1C1B1F"/>
<path d="M16.335 20.75H17.4038C17.73 20.75 18 21.02 18 21.3463V22.415C18 22.7412 17.73 23.0113 17.4038 23.0113H16.335C16.0088 23.0113 15.7388 22.7412 15.7388 22.415V21.3463C15.7388 21.02 16.0088 20.75 16.335 20.75Z" fill="#1C1B1F"/>
<path d="M14.0625 23C13.7475 23 13.5 22.7525 13.5 22.4375V21.3125C13.5 20.9975 13.7475 20.75 14.0625 20.75C14.3775 20.75 14.625 20.9975 14.625 21.3125V22.4375C14.625 22.7525 14.3663 23 14.0625 23Z" fill="#1C1B1F"/>
<path d="M19.35 14.9L21.1388 13.1113C21.285 12.9538 21.4875 12.875 21.7013 12.875C22.14 12.875 22.5 13.235 22.5 13.6738C22.5 13.8875 22.41 14.09 22.2638 14.2363L20.475 16.025C20.3288 16.1825 20.1263 16.2613 19.9125 16.2613C19.4738 16.2613 19.1138 15.9013 19.1138 15.4625C19.1138 15.2488 19.2038 15.0463 19.35 14.9Z" fill="#1C1B1F"/>
<path d="M26.7638 27.7362L24.975 29.525C24.8288 29.6712 24.7388 29.8737 24.7388 30.0875C24.7388 30.5262 25.0988 30.8863 25.5375 30.8863C25.7513 30.8863 25.9538 30.8075 26.1 30.65L27.8888 28.8612C28.035 28.715 28.125 28.5125 28.125 28.2987C28.125 27.86 27.765 27.5 27.3263 27.5C27.1125 27.5 26.91 27.5787 26.7638 27.7362Z" fill="#1C1B1F"/>
<path d="M16.875 27.4662V26.0825C16.875 25.5875 17.19 25.1487 17.6512 24.9912L20.0587 24.1925C20.1825 24.1587 20.3062 24.1362 20.43 24.1362H22.2188C22.3987 24.1362 22.5787 24.1812 22.7362 24.26L24.0975 24.9462C24.4913 25.1375 24.7387 25.5425 24.7387 25.9812V27.2412C24.7387 27.4212 24.6937 27.6012 24.615 27.7587L23.9288 29.12C23.7375 29.5137 23.3325 29.7612 22.8938 29.7612H21.8362C21.5325 29.7612 21.24 29.6375 21.0263 29.4237L20.565 28.9625C20.3513 28.7487 20.0587 28.625 19.755 28.625H18.0338C17.3925 28.625 16.875 28.1075 16.875 27.4662Z" fill="#1C1B1F"/>
<path fill-rule="evenodd" clip-rule="evenodd" d="M18 1.625C8.6802 1.625 1.125 9.1802 1.125 18.5C1.125 27.8198 8.6802 35.375 18 35.375C27.3198 35.375 34.875 27.8198 34.875 18.5C34.875 9.1802 27.3198 1.625 18 1.625ZM13.4792 4.58712C14.9028 4.12484 16.4222 3.875 18 3.875C26.0772 3.875 32.625 10.4228 32.625 18.5C32.625 26.5772 26.0772 33.125 18 33.125C12.5208 33.125 7.74538 30.1119 5.24024 25.6523C5.47959 25.3263 5.61376 24.9268 5.61376 24.5189V22.5389C5.61376 22.1676 5.90626 21.8751 6.27751 21.8751C6.53626 21.8751 6.73876 21.6726 6.73876 21.4139V20.7501C6.73876 20.1314 6.23251 19.6251 5.61376 19.6251C4.99501 19.6251 4.48876 19.1189 4.48876 18.5001V17.9264C4.48876 17.6226 4.73626 17.3751 5.04001 17.3751C5.35501 17.3751 5.62501 17.6339 5.60251 17.9489C5.60251 18.2526 5.85001 18.5001 6.15376 18.5001H6.82876C7.40251 18.5001 7.86376 18.0389 7.86376 17.4651V16.8126C7.86376 16.4976 8.11126 16.2501 8.42626 16.2501C8.74126 16.2501 8.98876 16.4976 8.98876 16.8126V17.8814C8.98876 18.2301 9.27001 18.5001 9.60751 18.5001C9.88876 18.5001 10.1138 18.7251 10.1138 19.0064V20.0526C10.1138 20.4351 10.4288 20.7501 10.8113 20.7501C11.0813 20.7501 11.3175 20.6039 11.4413 20.3676L13.2637 16.7114C13.41 16.4301 13.7025 16.2501 14.0175 16.2501C14.3775 16.2501 14.6925 16.4864 14.8163 16.8239L15.6037 19.1751C15.6937 19.4451 15.9413 19.6251 16.2225 19.6251C16.5825 19.6251 16.875 19.3326 16.875 18.9726V16.8126C16.875 16.4976 17.1225 16.2501 17.4375 16.2501C17.7525 16.2501 18 16.0026 18 15.6876V14.0676C18 13.4151 18.5287 12.8751 19.1925 12.8751C19.7775 12.8751 20.25 12.4026 20.2387 11.8176V11.6826C20.2387 11.0976 19.7662 10.6251 19.1812 10.6251H18.5512C18.2362 10.6251 17.9887 10.3776 17.9887 10.0626C17.9887 9.74759 18.2362 9.50009 18.5512 9.50009H20.385C20.925 9.50009 21.3637 9.93884 21.3637 10.4788V11.1876C21.3637 11.5026 21.6112 11.7501 21.9262 11.7501C22.2412 11.7501 22.4887 11.5026 22.4887 11.1876V10.5351C22.4887 9.34259 23.4562 8.37509 24.6487 8.37509H26.4262C26.7412 8.37509 26.9887 8.12759 26.9887 7.81259C26.9887 7.49759 26.7412 7.25009 26.4262 7.25009H23.1638C22.7925 7.25009 22.4887 6.94634 22.4887 6.57509C22.4887 6.32759 22.2863 6.12509 22.0388 6.12509H16.9425C16.1663 6.12509 15.4012 5.88884 14.76 5.45009L13.4792 4.58712Z" fill="#1C1B1F"/>
</svg>
